<svg width="337" height="321" viewBox="0 0 337 321" fill="none" xmlns="http://www.w3.org/2000/svg">
<g clip-path="url(#clip0_119_30)">
<path d="M323.412 126.3L329.54 113.236L332.692 124.487L335.451 142.551C335.71 144.255 335.903 145.972 336.024 147.701L336.723 157.699C337.187 164.289 337.072 170.914 336.379 177.473L335.686 184.051C334.74 193.043 332.74 201.831 329.745 210.161L329.257 211.516C325.37 222.328 320.472 232.579 314.651 242.09C309.867 249.914 304.462 257.172 298.508 263.774L289.657 273.597C285.758 277.922 281.54 281.825 277.057 285.252L269.103 291.33C264.192 295.082 258.98 298.238 253.539 300.756L238.722 307.604C235.137 309.261 231.449 310.592 227.695 311.586L209.347 316.434C206.419 317.205 203.466 317.85 200.496 318.35L189.933 320.145C185.239 320.94 180.491 321.187 175.761 320.873L157.455 319.663C155.485 319.53 153.526 319.241 151.592 318.789L129.466 313.609C127.472 313.14 125.501 312.519 123.573 311.742L100.435 302.442C97.5845 301.298 94.8007 299.919 92.1073 298.317L79.9235 291.071C78.1339 290.005 76.4407 288.722 74.8801 287.234L53.5796 266.972V120.795L47.2707 115.109H37.8105V109.785H70.5055L111.925 199.476L152.924 111.363L185.854 109.785L186.04 115.109L175.001 114.332L170.271 120.735V212.601L175.001 218.925L187.619 219.166V224.189L135.582 223.852V220.099H146.621L152.93 212.601V130.107L108.78 225.719L61.4731 128.228L63.0518 263.213L75.6272 275.175C77.7543 277.193 79.9958 279.03 82.3458 280.657L94.3247 288.963C96.5963 290.541 98.9825 291.878 101.453 292.956L123.404 302.569C126.26 303.822 129.213 304.767 132.214 305.4L151.279 309.399C153.436 309.851 155.605 310.194 157.78 310.429L176.164 312.393C179.268 312.724 182.389 312.712 185.486 312.351L194.35 311.321C201.418 310.495 208.426 309.056 215.313 307.008L225.791 303.894C228.72 303.021 231.594 301.9 234.384 300.533L245.103 295.287C253.015 291.414 260.613 286.698 267.814 281.199L273.526 276.832C277.214 274.013 280.691 270.815 283.914 267.279L292.537 257.817C297.213 252.685 301.437 246.993 305.13 240.837L308.312 235.543C312.982 227.773 316.935 219.425 320.098 210.643C323.219 201.994 325.298 192.863 326.28 183.521L326.449 181.888C327.449 172.378 327.775 162.789 327.419 153.218L327.383 152.314C327.238 148.375 326.847 144.46 326.208 140.587L324.798 131.98L323.4 126.294L323.412 126.3Z" fill="black"/>
<path d="M232.365 117.464L229.654 121.313V122.765C229.654 125.614 230.226 128.421 231.329 130.974L263.68 206.041L316.417 86.6497L313.084 81.8011C307.378 73.4951 301.015 65.8035 294.08 58.8226C290.832 55.552 287.439 52.4621 283.926 49.571L281.245 47.3665C274.093 41.4818 266.434 36.4404 258.378 32.3326L248.773 27.4297C245.11 25.5565 241.368 23.882 237.565 22.4003L229.997 19.449C226.376 18.0395 222.682 16.859 218.94 15.9194L216.536 15.3171C211.679 14.0944 206.763 13.1728 201.816 12.5464L193.928 11.5526L186.384 10.7756C178.948 10.0106 171.477 9.98051 164.035 10.6792L159.263 11.1309C156.286 11.414 153.321 11.7935 150.363 12.2693L138.312 14.2208C133.431 15.0099 128.617 16.2446 123.911 17.907L111.564 22.2738C106.37 24.1109 101.278 26.3275 96.3374 28.9114L88.245 33.1397C83.8523 35.4345 79.6464 38.157 75.6695 41.271L66.9987 48.0652C62.0336 51.9561 57.3818 56.3531 53.1036 61.1957L45.9211 69.327L43.3663 72.2182C39.4075 76.6994 35.8463 81.6143 32.7431 86.8907L27.4707 95.8471C25.0364 99.9851 22.9093 104.352 21.1258 108.899L18.2757 116.151C17.426 118.314 16.6728 120.518 16.01 122.759C13.2804 132.022 11.6776 141.672 11.2498 151.429L10.4484 169.601C10.2857 173.348 10.4363 177.106 10.9063 180.816C11.5692 186.075 12.473 191.297 13.6118 196.446L14.7085 201.422C15.5943 205.421 17.2272 209.107 18.5769 212.932C18.6553 213.155 18.7035 213.42 18.7035 213.745V238.777L16.6728 235.326C13.4974 229.935 10.7617 224.225 8.50815 218.262C7.36931 215.251 6.41727 212.155 5.65202 208.999L4.11549 202.614C2.50665 195.922 1.35576 189.104 0.674868 182.208L0.427818 179.69C0.144614 176.721 0 173.739 0 170.752V156.964C0.162691 139.563 4.22997 125.168 5.11574 121.283C6.24253 117.458 7.60431 113.73 9.19507 110.128L11.7379 104.37C14.112 98.9913 16.9139 93.8655 20.0954 89.053L30.6161 73.1698L32.3093 70.875C36.8466 64.7133 41.7815 58.943 47.072 53.6185L49.4943 51.1791C52.7843 47.8724 56.2249 44.7584 59.8041 41.8673L71.8373 32.1398C76.0974 28.6946 80.6768 25.7793 85.4852 23.4423L96.6386 18.0275C100.254 16.2747 103.942 14.7328 107.696 13.4017L119.464 9.23966C125.995 6.92676 132.684 5.21617 139.457 4.11995L146.82 2.92736C151.002 2.25276 155.208 1.72874 159.419 1.36132L168.952 0.530124C173.122 0.168733 177.303 -0.0119629 181.485 -0.0119629H183.347C191.512 -0.0119629 199.652 0.903562 207.654 2.71052L212.632 3.83686L217.404 5.03547C224.424 6.80027 231.329 9.08306 238.09 11.8658L243.501 14.0944C245.604 14.9617 247.676 15.9013 249.725 16.9132L263.289 23.6291C270.327 27.1165 277.051 31.3628 283.366 36.3139L288.626 40.4338C293.519 44.2705 298.099 48.5952 302.311 53.3656L309.589 61.6053L326.6 82.7889L260.258 232.989L205.823 121.301L199.67 117.452H190.512L190.373 111.676H242.832L243.248 117.452H233.221" fill="black"/>
</g>
<defs>
<clipPath id="clip0_119_30">
<rect width="337" height="321" fill="white"/>
</clipPath>
</defs>
</svg>
